<svg xmlns="http://www.w3.org/2000/svg" width="838.236" height="518" viewBox="0 0 838.236 518">
  <g id="Group_22" data-name="Group 22" transform="translate(0 -1076)">
    <g id="Path_6" data-name="Path 6" transform="translate(0 1076)" fill="none">
      <path d="M259,0C402.042,0,518,115.958,518,259S402.042,518,259,518,0,402.042,0,259,115.958,0,259,0Z" stroke="none"/>
      <path d="M 259 4 C 241.6959228515625 4 224.4039916992188 5.7430419921875 207.6044006347656 9.18072509765625 C 191.2337341308594 12.53067016601562 175.1311340332031 17.52920532226562 159.7437438964844 24.03753662109375 C 144.6347961425781 30.42807006835938 130.0619201660156 38.3380126953125 116.4298706054688 47.547607421875 C 102.9263305664062 56.67047119140625 90.22805786132812 67.14752197265625 78.68780517578125 78.68780517578125 C 67.14752197265625 90.22805786132812 56.67047119140625 102.9263305664062 47.547607421875 116.4298706054688 C 38.3380126953125 130.0619201660156 30.42807006835938 144.6347961425781 24.03753662109375 159.7437438964844 C 17.52920532226562 175.1311340332031 12.53067016601562 191.2337341308594 9.18072509765625 207.6044006347656 C 5.7430419921875 224.4039916992188 4 241.6959228515625 4 259 C 4 276.3040771484375 5.7430419921875 293.5960083007812 9.18072509765625 310.3955993652344 C 12.53067016601562 326.7662658691406 17.52920532226562 342.8688659667969 24.03753662109375 358.2562866210938 C 30.42807006835938 373.3652038574219 38.3380126953125 387.9380493164062 47.547607421875 401.5701293945312 C 56.67047119140625 415.0736694335938 67.14752197265625 427.7719421386719 78.68780517578125 439.3121948242188 C 90.22805786132812 450.8524780273438 102.9263305664062 461.3295288085938 116.4298706054688 470.452392578125 C 130.0619201660156 479.6619873046875 144.6347961425781 487.5719299316406 159.7437438964844 493.9624633789062 C 175.1311340332031 500.4707946777344 191.2337341308594 505.4693298339844 207.6044006347656 508.8192749023438 C 224.4039916992188 512.2569580078125 241.6959228515625 514 259 514 C 276.3040771484375 514 293.5960083007812 512.2569580078125 310.3955993652344 508.8192749023438 C 326.7662658691406 505.4693298339844 342.8688659667969 500.4707946777344 358.2562866210938 493.9624633789062 C 373.3652038574219 487.5719299316406 387.9380493164062 479.6619873046875 401.5701293945312 470.452392578125 C 415.0736694335938 461.3295288085938 427.7719421386719 450.8524780273438 439.3121948242188 439.3121948242188 C 450.8524780273438 427.7719421386719 461.3295288085938 415.0736694335938 470.452392578125 401.5701293945312 C 479.6619873046875 387.9380493164062 487.5719299316406 373.3652038574219 493.9624633789062 358.2562866210938 C 500.4707946777344 342.8688659667969 505.4693298339844 326.7662658691406 508.8192749023438 310.3955993652344 C 512.2569580078125 293.5960083007812 514 276.3040771484375 514 259 C 514 241.6959228515625 512.2569580078125 224.4039916992188 508.8192749023438 207.6044006347656 C 505.4693298339844 191.2337341308594 500.4707946777344 175.1311340332031 493.9624633789062 159.7437438964844 C 487.5719299316406 144.6347961425781 479.6619873046875 130.0619201660156 470.452392578125 116.4298706054688 C 461.3295288085938 102.9263305664062 450.8524780273438 90.22805786132812 439.3121948242188 78.68780517578125 C 427.7719421386719 67.14752197265625 415.0736694335938 56.67047119140625 401.5701293945312 47.547607421875 C 387.9380493164062 38.3380126953125 373.3652038574219 30.42807006835938 358.2562866210938 24.03753662109375 C 342.8688659667969 17.52920532226562 326.7662658691406 12.53067016601562 310.3955993652344 9.18072509765625 C 293.5960083007812 5.7430419921875 276.3040771484375 4 259 4 M 259 0 C 402.041748046875 0 518 115.958251953125 518 259 C 518 402.041748046875 402.041748046875 518 259 518 C 115.958251953125 518 0 402.041748046875 0 259 C 0 115.958251953125 115.958251953125 0 259 0 Z" stroke="none" fill="#da2c38"/>
    </g>
    <path id="Path_4" data-name="Path 4" d="M0,0H619.236" transform="translate(219 1365.5)" fill="none" stroke="#da2c38" stroke-width="4"/>
  </g>
</svg>
